<?xml version="1.0" encoding="UTF-8"?>
<svg width="32px" height="32px" viewBox="0 0 32 32" version="1.1" xmlns="http://www.w3.org/2000/svg" xmlns:xlink="http://www.w3.org/1999/xlink">
    <title>safari-pinned-tab</title>
    <g id="safari-pinned-tab" stroke="none" stroke-width="1" fill="none" fill-rule="evenodd">
        <path d="M22.1382342,6.67997646 C25.1294627,6.67997646 26.7583495,8.25201439 27.3210558,8.93421953 L27.7356815,7.00624848 L31.2600002,7.00624848 L30.9934551,11.4257514 L30.9932571,23.5891097 C30.9852537,26.5094457 30.7310107,30.2605455 23.4709598,30.2605455 C15.9188483,30.2605455 16.4223224,24.5359545 16.4223224,24.5359545 L20.657428,24.5359545 C20.657428,24.8325654 20.5093474,27.3240973 23.5598081,27.3240973 C26.7287333,27.3240973 26.8471978,25.5740928 26.8471978,23.1418831 L26.8471978,21.8071339 C26.0179464,22.6673056 24.6259886,23.4384941 22.1974665,23.4384941 C17.7254318,23.4384941 15.8299999,20.5020459 15.8299999,15.133388 C15.8299999,9.73506905 17.6958157,6.67997646 22.1382342,6.67997646 Z M4.99871088,1 L4.99871088,14.6755909 L10.5376659,7.28899193 L15.0399182,7.28899193 L9.97488441,13.4593236 L15.6026997,23.3971175 L10.9523471,23.3971175 L7.42755748,16.5741545 L4.99871088,19.5109951 L4.99871088,23.3971175 L1,23.3971175 L1,1 L4.99871088,1 Z M23.2563826,10.3143421 C20.9463249,10.3143421 19.9097606,12.0346855 19.9097606,15.386389 C19.9097606,18.7380925 20.9463249,20.3694526 23.2267664,20.3694526 C24.9445016,20.3694526 26.0402982,19.538942 26.7510851,18.6491092 L26.7510851,12.0643466 C26.1291465,11.263497 25.03335,10.3143421 23.2563826,10.3143421 Z" id="Combined-Shape" fill="#000000"></path>
    </g>
</svg>