<?xml version="1.0" encoding="UTF-8"?>
<svg width="800px" height="46px" viewBox="0 0 800 46" version="1.1" xmlns="http://www.w3.org/2000/svg" xmlns:xlink="http://www.w3.org/1999/xlink">
    <!-- Generator: Sketch 50.2 (55047) - http://www.bohemiancoding.com/sketch -->
    <title>browser-bar</title>
    <desc>Created with Sketch.</desc>
    <defs></defs>
    <g id="Website" stroke="none" stroke-width="1" fill="none" fill-rule="evenodd">
        <g id="Artboard-2" transform="translate(-952.000000, -76.000000)">
            <g id="browser-bar" transform="translate(952.000000, 76.000000)">
                <rect id="Bar" fill="#FFFFFF" x="0" y="0" width="800" height="46"></rect>
                <rect id="URL-Bar" stroke="#F7F7F7" stroke-width="2" fill="#FFFFFF" x="223" y="12" width="355" height="22" rx="4"></rect>
                <path d="M22,29 C18.6862915,29 16,26.3137085 16,23 C16,19.6862915 18.6862915,17 22,17 C25.3137085,17 28,19.6862915 28,23 C28,26.3137085 25.3137085,29 22,29 Z M39,29 C35.6862915,29 33,26.3137085 33,23 C33,19.6862915 35.6862915,17 39,17 C42.3137085,17 45,19.6862915 45,23 C45,26.3137085 42.3137085,29 39,29 Z M56,29 C52.6862915,29 50,26.3137085 50,23 C50,19.6862915 52.6862915,17 56,17 C59.3137085,17 62,19.6862915 62,23 C62,26.3137085 59.3137085,29 56,29 Z" id="Ovals" fill="#E6E6E6"></path>
            </g>
        </g>
    </g>
</svg>